<svg xmlns="http://www.w3.org/2000/svg" height="800" width="1200" viewBox="-8.7585285 -1.0580675 75.907247 6.348405"><path d="M45.21447 2.15021c.44944 0 .629-.2032.629-.5916 0-.41099-.20814-.6029-.61842-.6029h-.59866v3.0152c0 .09348-.07691.1718-.17145.1718h-.36936c-.09313 0-.17074-.07833-.17074-.1718V.71122c0-.09384.0776-.17638.17074-.17638h1.2118c.7433 0 1.20579.3376 1.20579 1.02376 0 .54045-.34255.80045-.73802.90487l.78 1.4605c.01587.03175.03104.06315.03104.09878 0 .0628-.04092.11995-.09878.11995h-.45226c-.05221 0-.10937-.04198-.13512-.09913l-.83326-1.62772c-.02081-.04022-.05821-.10583-.05821-.16757 0-.05468.02681-.09807.12241-.09807zM48.66679.86402c-.74719 0-.87595.6724-.87595 1.47497 0 .80997.13653 1.47496.86536 1.47496.71473 0 .88618-.63712.88618-1.47496 0-.80257-.1397-1.47497-.8756-1.47497m0 3.35492c-.69567 0-1.58326-.23918-1.58326-1.87995 0-1.63054.88089-1.8803 1.58327-1.8803.70167 0 1.58256.24976 1.58256 1.8803 0 1.60972-.86113 1.87995-1.58256 1.87995m3.62539-.00004c-.96732 0-1.36243-.54574-1.36243-1.20614V.71123c0-.09384.07796-.17638.1711-.17638h.36371c.0942 0 .17251.08255.17251.17638v2.3428c0 .5976.28716.75988.68862.75988.52811 0 .68898-.31115.68898-.75988V.71123c0-.09384.07796-.17638.1711-.17638h.29668c.09349 0 .1718.08255.1718.17638v2.30153c0 .76411-.47942 1.20614-1.36207 1.20614m3.25335-1.88051h.1785c.36513 0 .65053-.18592.65053-.67557 0-.53623-.27658-.7119-.66781-.7119h-.55915v3.02012c0 .09313-.0681.17145-.16122.17145h-.35913c-.0935 0-.17074-.07832-.17074-.17145V.71138c0-.09384.07726-.17675.17074-.17675h1.29963c.6992 0 1.10737.42651 1.10737 1.12819 0 .6343-.37183 1.06115-1.10878 1.06115-.14005 0-.27799-.01376-.36371-.02822-.14852-.02505-.21625-.10618-.21625-.19014 0-.08537.06703-.16722.20002-.16722M38.12155 4.14263h-.34325c-.09878 0-.1771-.07832-.1771-.17709V2.52726h-1.39205v1.43828c0 .09878-.07796.1771-.1771.1771h-.3429c-.09878 0-.17674-.07833-.17674-.1771V.71116c0-.09349.07796-.17638.1718-.17638h.35313c.09384 0 .1718.0829.1718.17638v1.3081h1.39207V.71116c0-.09349.07832-.17638.1718-.17638h.35348c.09384 0 .17216.0829.17216.17638v3.25438c0 .09878-.07832.1771-.1771.1771M1.50178 4.205C.3951 4.205 0 3.5813 0 2.8401V.26378C0 .15864.08925.06163.1965.06163h.3129c.1069 0 .1965.09701.1965.20214V2.9135c0 .67063.37077.8509.81139.8509.58314 0 .81139-.29704.81139-.8509V.26377c0-.10513.0896-.20214.1965-.20214h.27516c.10724 0 .19614.09701.19614.20214v2.57634c0 .85725-.52105 1.3649-1.49471 1.3649M16.86895.9531h-.61736v2.77142h.61736c.81386 0 1.01212-.61771 1.01212-1.36525 0-.74718-.1912-1.40617-1.01212-1.40617m.1658 3.18946h-1.3021c-.09349 0-.1718-.08114-.1718-.17427V.71427c0-.0935.07832-.17957.1718-.17957h1.3021c.85655 0 1.5367.45967 1.5367 1.82457 0 1.38571-.732 1.7833-1.5367 1.7833m5.24779.00056h-.30833c-.11113 0-.19897-.08714-.19897-.19791V2.29704h-1.65523v1.64818c0 .11077-.0875.1979-.19932.1979h-.30833c-.11112 0-.1979-.08713-.1979-.1979V.28762c0-.10513.08677-.19862.19226-.19862h.32067c.10513 0 .19262.0935.19262.19862V1.7774h1.65523V.28762c0-.10513.08784-.19862.19333-.19862h.31961c.10478 0 .19297.0935.19297.19862v3.6576c0 .11077-.0882.1979-.19861.1979m9.70252.00001h-1.74202c-.09842 0-.17674-.07832-.17674-.17745V.7113c0-.09349.07832-.17638.1718-.17638h.36371c.09384 0 .1718.0829.1718.17638v2.92277h1.21145c.09349 0 .17145.0836.17145.17674v.16016c0 .09384-.07796.17216-.17145.17216m-23.55244 0H8.0802c-.09913 0-.17674-.0815-.17674-.17992V.71448c0-.09349.0776-.17956.1718-.17956h.36266c.09349 0 .17145.08608.17145.17956v3.24873c0 .09842-.07796.17992-.17675.17992m3.33798-3.09916h-.81985v2.91924c0 .09843-.07832.17992-.17674.17992h-.35313c-.09807 0-.17639-.0815-.17639-.17992V1.04397h-.8262c-.0935 0-.17145-.07726-.17145-.17074V.71236c0-.09313.07796-.17744.17145-.17744h2.35232c.09349 0 .1711.0843.1711.17744v.16087c0 .0935-.07762.17074-.1711.17074m22.92766 0h-.87665v2.91924c0 .09843-.07761.17992-.17604.17992h-.35313c-.09807 0-.17639-.0815-.17639-.17992V1.04397h-.8823c-.09384 0-.17145-.07726-.17145-.17074V.71236c0-.09313.07761-.17744.17145-.17744h2.4645c.0935 0 .17075.0843.17075.17744v.16087c0 .0935-.07726.17074-.17074.17074M14.76252 4.14313h-2.03483c-.09349 0-.1711-.06033-.1711-.15346V.71237c0-.09314.07762-.17745.1711-.17745h1.96145c.09384 0 .1718.0843.1718.17744v.14358c0 .0935-.07796.17075-.1718.17075h-1.42699V2.0268h1.282c.09349 0 .17145.08326.17145.17674v.14358c0 .09313-.07796.17145-.17145.17145h-1.282v1.1303l1.50037.0018c.09349 0 .1711.0829.1711.17604v.16298c0 .09313-.07762.15346-.1711.15346m10.86778-.00002h-2.03448c-.09349 0-.17215-.06033-.17215-.15346V.71237c0-.09314.07867-.17745.17215-.17745h1.9611c.09313 0 .1711.0843.1711.17744v.14358c0 .0935-.07797.17075-.1711.17075h-1.427V2.0268h1.28165c.09384 0 .17145.08326.17145.17674v.14358c0 .09313-.0776.17145-.17145.17145h-1.28164v1.1303l1.50036.0018c.09313 0 .17075.0829.17075.17604v.16298c0 .09313-.07761.15346-.17075.15346M6.64595 4.14313h-.5327c-.1651 0-.24236-.07585-.28434-.16969-.26458-.56162-1.28905-2.85962-1.28905-2.85962V3.9685c0 .09313-.07796.17463-.17145.17463h-.23918c-.09384 0-.17145-.0815-.17145-.17463V.70848c0-.09384.0776-.17356.17145-.17356h.5207c.15416 0 .2487.05327.30092.16862.27552.60255 1.2834 2.8434 1.2834 2.8434V.70847c0-.09384.07832-.17356.17216-.17356h.23954c.09313 0 .17145.07973.17145.17356V3.9685c0 .09313-.07832.17463-.17145.17463m36.30915-.11758c-.1898.08396-.48718.20672-1.11019.20672-1.01706 0-1.92793-.4272-1.92793-2.1163C39.91698.79021 40.4779 0 41.84491 0c.63042 0 .97896.16792 1.06116.2025.12523.05326.1337.07901.1337.13722 0 .02787-.01588.11395-.0194.13512-.02046.10301-.04904.27128-.06526.36195-.0088.05009-.01552.11959-.09243.11959-.06279 0-.11712-.07303-.15134-.10795-.05362-.05503-.3563-.36865-.86642-.36865-.96944 0-1.13383.92957-1.13383 1.63618 0 .97543.31644 1.63654 1.13383 1.63654.3122 0 .4759-.05045.52634-.06421V2.3509c0-.08114.04763-.10654.13088-.10654h.44838c.09454 0 .12736.0381.12736.11324v1.46262c0 .139-.0085.15487-.12277.20531M27.2846 2.85693l.53729-1.78787.50624 1.78787zm2.1082 1.05693L28.35636.70076c-.0367-.10901-.12418-.16616-.25365-.16616h-.45826c-.133 0-.20602.05715-.24341.16616l-1.034 3.23356c-.01058.0314-.02152.05256-.02152.0836 0 .07268.06315.1249.12524.1249h.23319c.12382 0 .21449-.0575.25082-.16687l.2039-.67557h1.31446l.21307.67557c.03034.09384.09913.16686.25753.16686h.33937c.07867 0 .12983-.0522.12983-.13053 0-.03634-.01023-.06174-.02011-.09842M57.77216.93454h.11818c.0762 0 .12488-.01623.12488-.0949 0-.06914-.06138-.0889-.12488-.0889h-.11818zm-.09878-.26176h.23248c.1397 0 .20884.0561.20884.1711 0 .09772-.06209.16792-.15698.16792l.17286.26917h-.10513l-.16969-.26917h-.0836v.26917h-.09879zm.19967.74613c.23883 0 .4184-.19262.4184-.44133 0-.2487-.17957-.44132-.4184-.44132-.24165 0-.42122.19261-.42122.44132s.17957.44133.42122.44133m-.0018-.96026c.28645 0 .51893.23283.51893.51893s-.23248.51894-.51893.51894c-.2854 0-.51858-.23284-.51858-.51894 0-.2861.23318-.51893.51858-.51893" fill="#1e3d6a"/></svg>